<svg width="321" height="91" viewBox="0 0 321 91" fill="none" xmlns="http://www.w3.org/2000/svg">
    <g clip-path="url(#clip0_1_18)">
        <rect y="5" width="200" height="80" rx="16" fill="#FF9D00" />
        <path
            d="M38.962 72V22.464H48.826V72H38.962ZM22.834 30.096V21.384H64.954V30.096H22.834ZM61.3619 72L81.7379 21.384H89.7299L110.034 72H99.5939L83.8979 30.456H87.4979L71.5859 72H61.3619ZM72.1619 62.568V54.36H99.3779V62.568H72.1619ZM146.664 72L132.12 49.464H130.68L110.952 21.384H122.544L137.016 42.624H138.456L158.112 72H146.664ZM110.088 72L129.024 44.928L136.224 49.752L121.176 72H110.088ZM138.96 47.952L131.76 43.128L146.16 21.384H157.248L138.96 47.952ZM163.754 72V21.384H173.546V72H163.754Z"
            fill="black" />
        <path
            d="M237.955 72.72C234.355 72.72 230.971 72.072 227.803 70.776C224.683 69.432 221.923 67.56 219.523 65.16C217.171 62.76 215.323 60 213.979 56.88C212.683 53.712 212.035 50.304 212.035 46.656C212.035 42.96 212.707 39.552 214.051 36.432C215.395 33.264 217.267 30.504 219.667 28.152C222.067 25.752 224.875 23.904 228.091 22.608C231.307 21.264 234.787 20.592 238.531 20.592C242.707 20.592 246.547 21.384 250.051 22.968C253.555 24.504 256.459 26.688 258.763 29.52L252.139 36.144C250.555 34.08 248.587 32.496 246.235 31.392C243.883 30.288 241.291 29.736 238.459 29.736C235.243 29.736 232.387 30.456 229.891 31.896C227.443 33.288 225.523 35.256 224.131 37.8C222.739 40.296 222.043 43.224 222.043 46.584C222.043 49.944 222.715 52.92 224.059 55.512C225.451 58.056 227.323 60.048 229.675 61.488C232.075 62.928 234.811 63.648 237.883 63.648C241.051 63.648 243.763 63.072 246.019 61.92C248.275 60.72 250.003 58.992 251.203 56.736C252.403 54.432 253.003 51.624 253.003 48.312L259.411 52.704L237.307 52.488V43.992H263.083V45.36C263.083 51.408 262.003 56.472 259.843 60.552C257.683 64.584 254.707 67.632 250.915 69.696C247.171 71.712 242.851 72.72 237.955 72.72ZM294.915 72.792C291.219 72.792 287.763 72.12 284.547 70.776C281.379 69.432 278.595 67.584 276.195 65.232C273.843 62.832 271.995 60.048 270.651 56.88C269.307 53.664 268.635 50.232 268.635 46.584C268.635 42.936 269.283 39.552 270.579 36.432C271.923 33.264 273.771 30.504 276.123 28.152C278.523 25.752 281.307 23.904 284.475 22.608C287.643 21.264 291.075 20.592 294.771 20.592C298.515 20.592 301.971 21.264 305.139 22.608C308.307 23.904 311.067 25.752 313.419 28.152C315.819 30.504 317.691 33.264 319.035 36.432C320.379 39.6 321.051 43.008 321.051 46.656C321.051 50.304 320.379 53.712 319.035 56.88C317.691 60.048 315.819 62.832 313.419 65.232C311.067 67.584 308.307 69.432 305.139 70.776C302.019 72.12 298.611 72.792 294.915 72.792ZM294.771 63.648C298.035 63.648 300.867 62.928 303.267 61.488C305.667 60.048 307.539 58.056 308.883 55.512C310.275 52.968 310.971 49.992 310.971 46.584C310.971 44.088 310.587 41.808 309.819 39.744C309.051 37.68 307.947 35.904 306.507 34.416C305.067 32.88 303.363 31.704 301.395 30.888C299.427 30.072 297.219 29.664 294.771 29.664C291.603 29.664 288.795 30.384 286.347 31.824C283.947 33.216 282.051 35.184 280.659 37.728C279.315 40.272 278.643 43.224 278.643 46.584C278.643 49.128 279.027 51.456 279.795 53.568C280.611 55.68 281.715 57.48 283.107 58.968C284.547 60.456 286.251 61.608 288.219 62.424C290.235 63.24 292.419 63.648 294.771 63.648Z"
            fill="#FF9D00" />
    </g>
    <defs>
        <clipPath id="clip0_1_18">
            <rect width="321" height="91" rx="2" fill="white" />
        </clipPath>
    </defs>
</svg>